<svg xmlns="http://www.w3.org/2000/svg" viewBox="0 0 32 32">
  <!-- Forest green background circle -->
  <circle cx="16" cy="16" r="16" fill="#2d6a4f"/>
  <!-- Leaf shape: stem curving up, blade sweeping right -->
  <path d="M16 27 C16 27 8 20 8 13 C8 7 13 4 16 4 C19 4 24 7 24 13 C24 20 16 27 16 27Z"
        fill="#52b788" opacity="0.95"/>
  <!-- Central vein -->
  <path d="M16 27 C16 27 16 15 16 6"
        stroke="#1b4332" stroke-width="1.2" fill="none" stroke-linecap="round"/>
  <!-- Left lateral veins -->
  <path d="M16 22 C13 20 10 19 9 17" stroke="#1b4332" stroke-width="0.8" fill="none" stroke-linecap="round" opacity="0.7"/>
  <path d="M16 17 C13 15 10 14 9 12" stroke="#1b4332" stroke-width="0.8" fill="none" stroke-linecap="round" opacity="0.7"/>
  <path d="M16 12 C14 10 12 9 11 8"  stroke="#1b4332" stroke-width="0.7" fill="none" stroke-linecap="round" opacity="0.7"/>
  <!-- Right lateral veins -->
  <path d="M16 22 C19 20 22 19 23 17" stroke="#1b4332" stroke-width="0.8" fill="none" stroke-linecap="round" opacity="0.7"/>
  <path d="M16 17 C19 15 22 14 23 12" stroke="#1b4332" stroke-width="0.8" fill="none" stroke-linecap="round" opacity="0.7"/>
  <path d="M16 12 C18 10 20 9 21 8"  stroke="#1b4332" stroke-width="0.7" fill="none" stroke-linecap="round" opacity="0.7"/>
</svg>
